{"title":"U2 - Every Breaking Wave (2015.Rock)","uid":11727900,"size":115552952,"categoryP":"video","categoryS":"music_videos","magnet":"?xt=urn:btih:055c83bfa9a2b1dda74b33a99ef9388e4d2f7a80&amp;dn=U2+-+Every+Breaking+Wave+%282015.Rock%29&amp;tr=udp%3A%2F%2Ftracker.openbittorrent.com%3A80&amp;tr=udp%3A%2F%2Fopen.demonii.com%3A1337&amp;tr=udp%3A%2F%2Ftracker.coppersurfer.tk%3A6969&amp;tr=udp%3A%2F%2Fexodus.desync.com%3A6969","seeders":14,"leechers":0,"uploader":"MeRaDil","files":1,"time":1425150195,"description":"U2 - EVERY BREAKING WAVE\n\n &lt;a href=&quot;\nhttp://gifyu.com/images/wave.png&quot; rel=&quot;nofollow&quot; target=&quot;_NEW&quot;&gt;\nhttp://gifyu.com/images/wave.png&lt;/a&gt;\n &lt;a href=&quot;\nhttp://gifyu.com/images/U2.png&quot; rel=&quot;nofollow&quot; target=&quot;_NEW&quot;&gt;\nhttp://gifyu.com/images/U2.png&lt;/a&gt;\n\nGeneral\nU2 - Every Breaking Wave\nFormat                      : MPEG-4\nFormat profile              : Base Media\nCodec ID                    : isom\nFile size                   : 110 MiB\nDuration                    : 4mn 38s\nOverall bit rate            : 3 316 Kbps\nMusicVid name               : Every Breaking Wave\nAlbum                       : Songs of Innocence\nPerformer                   : U2\nGenre                       : Rock\nContentType                 : Music Video\nRecorded date               : 2015\nCopyright                   : U2\nCover                       : Yes\nRating                      : ***\nMake                        : MeRaDil\noday                        : USA  23-02-2015\nArtist url                  : http://www.u2.com\nLabel                       : Island\nReleae                      : Ireland . february 23 . 2015\nPart_ID                     : Every Breaking Wave\n\nVideo\nID                          : 1\nFormat                      : AVC\nFormat/Info                 : Advanced Video Codec\nFormat profile              : &lt;a class=&quot;__cf_email__&quot; href=&quot;/cdn-cgi/l/email-protection&quot; data-cfemail=&quot;d59dbcb2bd9599e1fbe5&quot;&gt;[email&amp;#160;protected]&lt;/a&gt;&lt;script cf-hash='f9e31' type=&quot;text/javascript&quot;&gt;\n/* &lt;![CDATA[ */!function(){try{var t=&quot;currentScript&quot;in document?document.currentScript:function(){for(var t=document.getElementsByTagName(&quot;script&quot;),e=t.length;e--;)if(t[e].getAttribute(&quot;cf-hash&quot;))return t[e]}();if(t&amp;&amp;t.previousSibling){var e,r,n,i,c=t.previousSibling,a=c.getAttribute(&quot;data-cfemail&quot;);if(a){for(e=&quot;&quot;,r=parseInt(a.substr(0,2),16),n=2;a.length-n;n+=2)i=parseInt(a.substr(n,2),16)^r,e+=String.fromCharCode(i);e=document.createTextNode(e),c.parentNode.replaceChild(e,c)}}}catch(u){}}();/* ]]&gt; */&lt;/script&gt;\nFormat settings, CABAC      : Yes\nFormat settings, ReFrames   : 2 frames\nCodec ID                    : avc1\nCodec ID/Info               : Advanced Video Coding\nDuration                    : 4mn 38s\nBit rate                    : 3 054 Kbps\nWidth                       : 1 920 pixels\nHeight                      : 1 080 pixels\nDisplay aspect ratio        : 16:9\nFrame rate mode             : Constant\nFrame rate                  : 25.000 fps\nColor space                 : YUV\nChroma subsampling          : 4:2:0\nBit depth                   : 8 bits\nScan type                   : Progressive\nBits/(Pixel*Frame)          : 0.059\nStream size                 : 101 MiB (92%)\n\nAudio\nID                          : 2\nFormat                      : AAC\nFormat/Info                 : Advanced Audio Codec\nFormat profile              : LC\nCodec ID                    : 40\nDuration                    : 4mn 38s\nBit rate mode               : Constant\nBit rate                    : 256 Kbps\nChannel(s)                  : 2 channels\nChannel positions           : Front: L R\nSampling rate               : 44.1 KHz\nCompression mode            : Lossy\nStream size                 : 8.51 MiB (8%)\n &lt;a href=&quot;\nhttps://thepiratebay.se/user/MeRaDil&quot; rel=&quot;nofollow&quot; target=&quot;_NEW&quot;&gt;\nhttps://thepiratebay.se/user/MeRaDil&lt;/a&gt;\n\nU2 * Songs of Innocence * Promo * Rock * Ireland/USA\n\n:)","torrent":{"xt":"urn:btih:055c83bfa9a2b1dda74b33a99ef9388e4d2f7a80","amp;dn":"U2+-+Every+Breaking+Wave+%282015.Rock%29","amp;tr":["udp%3A%2F%2Ftracker.openbittorrent.com%3A80","udp%3A%2F%2Fopen.demonii.com%3A1337","udp%3A%2F%2Ftracker.coppersurfer.tk%3A6969","udp%3A%2F%2Fexodus.desync.com%3A6969"],"infoHash":"055c83bfa9a2b1dda74b33a99ef9388e4d2f7a80","infoHashBuffer":{"type":"Buffer","data":[5,92,131,191,169,162,177,221,167,75,51,169,158,249,56,142,77,47,122,128]},"announce":[],"urlList":[]}}